<svg width="154" height="22" viewBox="0 0 154 22" fill="none" xmlns="http://www.w3.org/2000/svg">
<rect y="1" width="24" height="6" rx="3" fill="#00DF94"/>
<rect y="8" width="24" height="6" rx="3" fill="#167555"/>
<rect y="8" width="12" height="6" rx="3" fill="#00DF94"/>
<rect y="15" width="24" height="6" rx="3" fill="#167555"/>
<rect y="15" width="6" height="6" rx="3" fill="#00DF94"/>
<path d="M35.0194 1.36364H37.9725V15.2855C37.9725 16.5447 37.7232 17.6218 37.2247 18.5167C36.7325 19.4116 36.0389 20.0955 35.144 20.5685C34.2492 21.0352 33.2009 21.2685 31.9992 21.2685C30.8933 21.2685 29.8994 21.0671 29.0173 20.6644C28.1416 20.2617 27.448 19.6768 26.9367 18.9098C26.4317 18.1364 26.1792 17.1967 26.1792 16.0909H29.1227C29.1227 16.6342 29.2474 17.104 29.4967 17.5004C29.7524 17.8967 30.1007 18.2067 30.5418 18.4304C30.9892 18.6477 31.5006 18.7564 32.0759 18.7564C32.7023 18.7564 33.2328 18.6254 33.6675 18.3633C34.1085 18.0948 34.4441 17.7017 34.6742 17.1839C34.9043 16.6662 35.0194 16.0334 35.0194 15.2855V1.36364ZM48.2581 21.2972C46.8774 21.2972 45.6725 20.9808 44.6434 20.348C43.6143 19.7152 42.8153 18.8299 42.2464 17.6921C41.6775 16.5543 41.3931 15.2248 41.3931 13.7035C41.3931 12.1758 41.6775 10.8398 42.2464 9.69567C42.8153 8.55149 43.6143 7.663 44.6434 7.03018C45.6725 6.39737 46.8774 6.08097 48.2581 6.08097C49.6388 6.08097 50.8437 6.39737 51.8728 7.03018C52.9019 7.663 53.701 8.55149 54.2698 9.69567C54.8387 10.8398 55.1232 12.1758 55.1232 13.7035C55.1232 15.2248 54.8387 16.5543 54.2698 17.6921C53.701 18.8299 52.9019 19.7152 51.8728 20.348C50.8437 20.9808 49.6388 21.2972 48.2581 21.2972ZM48.2677 18.8906C49.1626 18.8906 49.9041 18.6541 50.4921 18.1811C51.0802 17.7081 51.5149 17.0785 51.7961 16.2923C52.0838 15.506 52.2276 14.6399 52.2276 13.6939C52.2276 12.7543 52.0838 11.8913 51.7961 11.1051C51.5149 10.3125 51.0802 9.67649 50.4921 9.19709C49.9041 8.71768 49.1626 8.47798 48.2677 8.47798C47.3664 8.47798 46.6186 8.71768 46.0241 9.19709C45.436 9.67649 44.9982 10.3125 44.7105 11.1051C44.4293 11.8913 44.2887 12.7543 44.2887 13.6939C44.2887 14.6399 44.4293 15.506 44.7105 16.2923C44.9982 17.0785 45.436 17.7081 46.0241 18.1811C46.6186 18.6541 47.3664 18.8906 48.2677 18.8906ZM58.5533 21V1.36364H61.4201V8.66016H61.5927C61.7589 8.35334 61.9986 7.99858 62.3118 7.59588C62.625 7.19318 63.0597 6.84162 63.6158 6.54119C64.1719 6.23438 64.907 6.08097 65.8211 6.08097C67.01 6.08097 68.0711 6.38139 69.0043 6.98224C69.9375 7.5831 70.6694 8.44922 71.2 9.58061C71.7369 10.712 72.0054 12.0735 72.0054 13.6651C72.0054 15.2567 71.7401 16.6214 71.2096 17.7592C70.679 18.8906 69.9503 19.7631 69.0235 20.3768C68.0966 20.984 67.0388 21.2876 65.8498 21.2876C64.9549 21.2876 64.2231 21.1374 63.6542 20.837C63.0917 20.5366 62.6506 20.185 62.331 19.7823C62.0114 19.3796 61.7653 19.0217 61.5927 18.7085H61.353V21H58.5533ZM61.3626 13.6364C61.3626 14.6719 61.5128 15.5795 61.8133 16.3594C62.1137 17.1392 62.5483 17.7496 63.1172 18.1907C63.6861 18.6254 64.3829 18.8427 65.2074 18.8427C66.064 18.8427 66.7799 18.6158 67.3552 18.1619C67.9304 17.7017 68.3651 17.0785 68.6591 16.2923C68.9596 15.506 69.1098 14.6207 69.1098 13.6364C69.1098 12.6648 68.9628 11.7923 68.6687 11.0188C68.3811 10.2454 67.9464 9.63494 67.3647 9.1875C66.7895 8.74006 66.0704 8.51633 65.2074 8.51633C64.3765 8.51633 63.6733 8.73047 63.0981 9.15874C62.5292 9.587 62.0977 10.1847 61.8037 10.9517C61.5096 11.7187 61.3626 12.6136 61.3626 13.6364ZM73.4052 3.91406V1.36364H88.6023V3.91406H82.4755V21H79.5224V3.91406H73.4052ZM94.5973 12.2557V21H91.7304V1.36364H94.5589V8.66974H94.7411C95.0862 7.87713 95.6136 7.24751 96.3231 6.78089C97.0326 6.31428 97.9595 6.08097 99.1036 6.08097C100.114 6.08097 100.996 6.28871 101.75 6.70419C102.511 7.11967 103.099 7.7397 103.514 8.56428C103.936 9.38246 104.147 10.4052 104.147 11.6325V21H101.28V11.9776C101.28 10.8974 101.002 10.06 100.446 9.46555C99.8899 8.8647 99.1164 8.56428 98.1257 8.56428C97.4481 8.56428 96.8409 8.7081 96.3039 8.99574C95.7734 9.28338 95.3547 9.70526 95.0479 10.2614C94.7475 10.8111 94.5973 11.4759 94.5973 12.2557ZM107.973 21V6.27273H110.744V8.61222H110.897C111.165 7.8196 111.638 7.19638 112.316 6.74254C113 6.28231 113.773 6.0522 114.636 6.0522C114.815 6.0522 115.026 6.05859 115.269 6.07138C115.518 6.08416 115.713 6.10014 115.854 6.11932V8.86151C115.739 8.82955 115.534 8.79439 115.24 8.75604C114.946 8.71129 114.652 8.68892 114.358 8.68892C113.681 8.68892 113.077 8.83274 112.546 9.12038C112.022 9.40163 111.606 9.79474 111.3 10.2997C110.993 10.7983 110.839 11.3672 110.839 12.0064V21H107.973ZM118.335 21V6.27273H121.202V21H118.335ZM119.783 4.00035C119.284 4.00035 118.856 3.83416 118.498 3.50177C118.146 3.163 117.971 2.7603 117.971 2.29368C117.971 1.82067 118.146 1.41797 118.498 1.08558C118.856 0.746803 119.284 0.577414 119.783 0.577414C120.281 0.577414 120.706 0.746803 121.058 1.08558C121.416 1.41797 121.595 1.82067 121.595 2.29368C121.595 2.7603 121.416 3.163 121.058 3.50177C120.706 3.83416 120.281 4.00035 119.783 4.00035ZM137.657 6.27273L132.317 21H129.249L123.898 6.27273H126.976L130.706 17.6058H130.859L134.58 6.27273H137.657ZM146.198 21.2972C144.747 21.2972 143.497 20.9872 142.449 20.3672C141.407 19.7408 140.602 18.8619 140.033 17.7305C139.47 16.5927 139.189 15.2599 139.189 13.7322C139.189 12.2237 139.47 10.8942 140.033 9.74361C140.602 8.59304 141.394 7.69496 142.411 7.04936C143.433 6.40376 144.629 6.08097 145.996 6.08097C146.827 6.08097 147.633 6.21839 148.413 6.49325C149.193 6.76811 149.892 7.19957 150.512 7.78764C151.133 8.37571 151.621 9.13956 151.979 10.0792C152.337 11.0124 152.516 12.147 152.516 13.483V14.4993H140.809V12.3516H149.707C149.707 11.5973 149.554 10.9293 149.247 10.3477C148.94 9.75959 148.509 9.29616 147.952 8.95739C147.403 8.61861 146.757 8.44922 146.016 8.44922C145.21 8.44922 144.507 8.64737 143.906 9.04368C143.312 9.43359 142.852 9.94496 142.526 10.5778C142.206 11.2042 142.046 11.8849 142.046 12.62V14.2979C142.046 15.2823 142.219 16.1197 142.564 16.81C142.916 17.5004 143.405 18.0277 144.031 18.392C144.657 18.75 145.389 18.929 146.227 18.929C146.77 18.929 147.265 18.8523 147.713 18.6989C148.16 18.5391 148.547 18.3026 148.873 17.9893C149.199 17.6761 149.448 17.2894 149.621 16.8292L152.334 17.3182C152.117 18.1172 151.727 18.8171 151.164 19.418C150.608 20.0124 149.908 20.4759 149.065 20.8082C148.227 21.1342 147.272 21.2972 146.198 21.2972Z" fill="white"/>
</svg>
